<?xml version="1.0" standalone="no"?>
<!DOCTYPE svg PUBLIC "-//W3C//DTD SVG 20010904//EN"
 "http://www.w3.org/TR/2001/REC-SVG-20010904/DTD/svg10.dtd">
<svg version="1.0" xmlns="http://www.w3.org/2000/svg"
 width="2040.000000pt" height="2048.000000pt" viewBox="0 0 2040.000000 2048.000000"
 preserveAspectRatio="xMidYMid meet">
<metadata>
Created by potrace 1.16, written by Peter Selinger 2001-2019
</metadata>
<g transform="translate(0.000000,2048.000000) scale(0.100000,-0.100000)"
fill="#000000" stroke="none">
<path d="M9846 20212 c-4 -8 -56 -239 -202 -906 -30 -137 -56 -252 -59 -254
-8 -8 -1019 -162 -1044 -160 -18 2 -37 28 -94 128 -114 203 -136 242 -301 535
-206 366 -236 415 -251 415 -18 0 -585 -156 -590 -162 -1 -2 2 -91 6 -198 12
-285 39 -925 42 -999 l2 -64 -45 -18 c-43 -18 -222 -81 -739 -263 l-245 -86
-39 37 c-22 21 -144 140 -271 264 -364 357 -558 544 -567 547 -7 3 -447 -265
-516 -313 -2 -1 34 -120 78 -266 212 -696 270 -892 262 -899 -4 -4 -161 -132
-348 -285 -187 -153 -368 -302 -403 -332 -35 -29 -68 -53 -74 -53 -6 0 -39 15
-72 34 -34 18 -194 107 -356 196 -162 90 -382 212 -488 271 -107 60 -195 109
-197 109 -2 0 -46 -49 -97 -108 -51 -60 -141 -163 -201 -229 -59 -67 -107
-125 -107 -128 0 -4 44 -80 98 -169 55 -88 163 -267 242 -396 78 -129 166
-273 195 -320 29 -47 60 -99 70 -116 l17 -31 -43 -59 c-25 -32 -173 -231 -331
-441 l-287 -381 -88 23 c-48 12 -148 39 -220 59 -73 20 -190 51 -260 70 -71
19 -222 60 -338 91 -293 80 -285 78 -289 74 -13 -18 -280 -446 -288 -464 -11
-25 -28 -8 217 -230 72 -65 150 -137 175 -160 25 -22 131 -119 235 -215 105
-95 216 -197 248 -227 l58 -53 -206 -492 c-113 -271 -208 -495 -213 -500 -4
-4 -292 -8 -640 -8 -492 -2 -634 -5 -638 -14 -3 -7 -36 -134 -74 -282 -63
-245 -68 -270 -53 -281 9 -7 84 -49 167 -94 83 -45 230 -126 326 -179 96 -53
262 -143 367 -201 l193 -104 0 -35 c0 -19 -11 -172 -24 -340 -14 -168 -33
-404 -42 -525 -9 -121 -19 -223 -23 -227 -3 -4 -98 -32 -211 -63 -113 -31
-268 -74 -345 -96 -77 -21 -268 -73 -424 -116 l-284 -76 7 -106 c3 -58 9 -191
12 -294 4 -103 10 -190 15 -192 4 -3 29 -9 56 -15 268 -52 1158 -242 1164
-247 11 -14 103 -1063 93 -1072 -5 -5 -241 -143 -524 -307 -283 -163 -521
-302 -528 -309 -11 -10 -7 -37 23 -151 66 -250 114 -417 122 -424 5 -4 289 -4
633 1 344 4 629 4 633 0 6 -6 282 -773 335 -933 l15 -46 -174 -184 c-96 -100
-221 -232 -279 -293 -162 -171 -299 -315 -348 -366 l-44 -47 172 -257 c98
-147 176 -255 183 -252 30 11 989 308 1096 338 42 12 45 12 65 -12 11 -14 111
-140 221 -280 109 -140 250 -318 312 -396 62 -78 113 -145 113 -147 0 -4 -316
-541 -364 -619 -7 -12 -73 -123 -146 -246 l-132 -223 208 -209 c115 -115 214
-209 220 -209 10 0 377 209 942 537 141 81 166 92 180 81 186 -147 790 -661
787 -670 -2 -7 -35 -134 -74 -283 -38 -148 -104 -402 -146 -563 -42 -161 -75
-299 -73 -307 2 -11 497 -335 512 -335 2 0 158 168 347 373 189 204 365 395
392 424 27 28 60 65 74 82 14 17 32 31 39 31 11 0 182 -71 860 -358 l111 -47
7 -395 c3 -217 6 -489 7 -605 0 -116 3 -221 6 -236 4 -24 15 -27 286 -92 155
-37 289 -67 297 -67 9 1 94 149 223 388 377 703 365 682 380 682 7 0 129 -11
272 -25 143 -14 386 -38 539 -53 l279 -27 42 -185 c23 -102 61 -268 85 -370
23 -102 64 -282 91 -400 27 -118 51 -225 54 -237 l5 -23 318 0 317 0 170 592
c93 326 173 608 179 626 6 20 17 34 30 37 18 4 942 93 1020 98 28 2 34 -9 307
-533 153 -294 282 -542 287 -550 10 -17 -17 -23 361 77 135 35 248 66 253 69
4 3 8 292 8 643 l0 638 153 68 c209 93 326 146 581 260 l219 99 90 -95 c50
-52 194 -202 321 -334 127 -132 285 -296 351 -365 66 -69 125 -126 132 -128
12 -3 62 32 322 225 68 51 132 98 143 105 19 13 19 18 -36 228 -195 748 -257
1005 -244 1015 20 15 417 312 648 484 116 86 211 150 220 148 9 -2 240 -154
515 -337 274 -183 506 -334 514 -336 10 -2 66 51 141 132 69 74 161 173 204
220 l79 85 -17 37 c-10 20 -43 82 -73 137 -326 583 -514 935 -507 947 9 16
123 162 369 474 104 133 215 274 245 313 33 43 60 69 68 66 8 -3 176 -56 375
-119 199 -63 432 -137 517 -164 196 -64 239 -76 244 -71 2 2 66 120 141 262
l138 258 -109 112 c-60 62 -170 175 -245 252 -253 261 -461 487 -492 535 -17
27 -17 28 19 106 20 43 61 140 91 214 30 74 86 212 124 305 39 94 88 216 110
273 l41 102 637 0 638 0 51 258 c29 142 52 265 52 273 0 9 -106 78 -262 169
-325 190 -688 404 -748 440 -52 31 -50 13 -20 235 10 77 40 298 66 490 25 193
47 351 48 351 0 1 258 61 571 133 314 73 577 136 585 140 13 7 15 52 15 307
l0 299 -65 16 c-36 10 -153 38 -260 64 -461 110 -872 224 -885 244 -3 5 -18
161 -35 348 -16 186 -39 445 -51 576 -12 131 -20 239 -18 241 2 2 117 61 254
131 138 70 295 151 350 180 55 29 170 87 255 130 85 43 162 84 171 92 14 12
10 41 -45 321 l-62 307 -636 3 -635 2 -33 73 c-18 39 -54 119 -80 177 -69 154
-310 683 -315 690 -4 7 122 134 395 396 74 71 211 204 305 296 93 91 180 174
193 185 l23 18 -177 255 c-97 140 -181 260 -187 267 -9 9 -145 -32 -582 -178
-313 -104 -573 -188 -577 -187 -3 2 -158 204 -342 451 l-336 447 67 108 c60
98 430 691 544 874 l49 77 -128 123 c-298 290 -290 282 -314 271 -13 -6 -256
-144 -541 -307 -285 -163 -524 -296 -531 -296 -7 0 -67 42 -134 93 -66 50
-256 195 -421 321 -166 125 -301 235 -301 243 0 7 11 49 24 91 66 209 326
1063 326 1071 0 5 -66 48 -147 97 -82 48 -199 118 -262 156 -62 37 -115 68
-117 68 -1 0 -45 -48 -96 -107 -371 -429 -766 -813 -836 -813 -9 0 -55 20
-103 45 -47 24 -122 60 -165 79 -43 18 -221 95 -394 170 -217 93 -316 140
-319 152 -1 10 9 281 25 604 15 323 25 594 22 602 -3 8 -53 28 -114 46 -240
69 -475 134 -478 131 -1 -2 -24 -44 -51 -94 -27 -49 -56 -103 -65 -120 -9 -16
-119 -221 -245 -455 -125 -234 -230 -427 -231 -429 -5 -6 -1048 130 -1056 138
-3 3 -79 236 -167 516 -89 281 -172 539 -184 575 l-22 65 -292 3 c-160 1 -294
-1 -297 -6z m-33 -2202 c3 -211 8 -328 17 -355 17 -54 75 -110 130 -125 98
-27 245 6 282 62 38 59 42 94 39 426 l-2 322 59 0 60 0 7 -142 c9 -193 1 -534
-14 -580 -24 -74 -73 -131 -146 -168 -62 -32 -76 -35 -175 -38 -128 -5 -197
11 -262 61 -99 75 -114 145 -124 549 l-7 307 59 3 c33 2 62 1 66 -2 3 -3 8
-147 11 -320z m-498 249 c4 -27 5 -52 3 -55 -3 -2 -123 -20 -267 -41 l-263
-36 6 -36 c3 -20 11 -80 18 -133 11 -95 12 -98 37 -98 14 0 126 14 249 31 123
17 225 29 227 27 2 -2 7 -27 11 -56 5 -41 4 -52 -7 -52 -8 -1 -120 -16 -249
-34 -184 -25 -235 -36 -234 -47 4 -61 38 -289 43 -289 3 0 116 16 251 35 135
19 257 35 271 35 29 0 39 -19 39 -75 l0 -31 -317 -43 c-175 -24 -327 -44 -338
-45 -18 -1 -21 11 -37 124 -56 394 -107 774 -104 778 3 2 112 19 243 37 131
18 267 37 303 43 113 17 107 18 115 -39z m1870 21 c157 -40 245 -133 245 -258
l0 -47 -59 3 -59 4 -4 43 c-10 87 -72 138 -189 156 -120 19 -210 -20 -225 -97
-15 -81 21 -112 233 -194 196 -76 268 -141 280 -252 19 -190 -154 -321 -380
-288 -108 16 -179 45 -238 98 -65 58 -91 110 -97 195 -5 75 -6 75 79 61 36 -6
37 -8 41 -56 10 -104 115 -178 263 -186 140 -7 210 40 210 141 0 45 -3 52 -41
86 -24 21 -78 50 -130 71 -156 61 -217 90 -262 127 -104 85 -109 234 -11 332
76 77 198 98 344 61z m938 -197 c187 -49 341 -93 344 -99 9 -24 -17 -94 -35
-94 -9 0 -75 16 -146 35 -72 19 -131 34 -131 32 -1 -1 -47 -176 -101 -389 -54
-214 -103 -388 -107 -388 -5 0 -33 7 -62 15 l-53 16 29 112 c115 436 169 660
162 666 -4 4 -66 22 -138 40 -71 18 -133 36 -136 39 -7 8 19 102 29 102 3 0
159 -39 345 -87z m-3748 -383 c64 -234 118 -429 119 -434 0 -6 -15 -15 -34
-22 -87 -28 -59 -46 -405 252 -176 151 -321 271 -322 267 -1 -4 40 -156 91
-338 l92 -330 -53 -19 c-30 -10 -56 -16 -59 -13 -6 6 -244 858 -244 873 0 7
20 17 44 23 24 6 50 13 57 16 8 3 144 -106 334 -269 176 -151 321 -271 323
-267 1 4 -17 79 -42 167 -24 87 -65 235 -91 327 -26 93 -45 170 -43 172 9 9
104 32 109 26 4 -3 59 -197 124 -431z m5096 -90 c134 -25 272 -130 327 -247
35 -77 43 -214 17 -306 -43 -155 -150 -292 -272 -350 -153 -71 -344 -37 -478
85 -91 83 -135 184 -135 308 0 191 124 398 284 474 98 47 155 55 257 36z
m-6292 -166 c57 -24 117 -81 145 -136 37 -73 37 -177 1 -253 -47 -99 -141
-158 -255 -158 -286 -1 -394 375 -150 526 75 46 177 55 259 21z m-945 -142
c16 -35 16 -49 5 -143 -26 -225 14 -499 103 -702 16 -38 28 -70 26 -71 -2 -2
-24 -15 -50 -30 l-47 -27 -24 48 c-39 76 -75 185 -99 296 -18 85 -22 135 -22
295 -1 105 -2 192 -4 192 -2 0 -85 -48 -184 -107 -200 -118 -185 -115 -224
-40 -14 26 -14 28 18 47 18 11 130 78 248 149 118 71 220 130 226 130 6 1 19
-16 28 -37z m8320 -295 c127 -82 235 -153 240 -158 4 -4 -6 -28 -23 -53 l-31
-45 -206 135 c-114 74 -207 134 -209 132 -30 -39 -145 -222 -143 -228 2 -5 79
-59 173 -120 93 -61 171 -113 173 -115 3 -2 -40 -77 -53 -93 -2 -2 -83 49
-181 113 -142 92 -180 113 -190 103 -6 -7 -53 -78 -104 -158 -52 -80 -99 -151
-106 -159 -10 -11 -20 -8 -58 18 -25 18 -46 35 -46 39 0 12 45 81 388 605 95
145 105 156 124 146 11 -6 125 -79 252 -162z m-3699 19 c580 -57 1128 -177
1590 -346 72 -27 189 -70 260 -96 923 -337 1899 -984 2508 -1664 135 -152 293
-356 389 -506 31 -49 102 -154 158 -234 329 -470 599 -952 727 -1300 150 -408
312 -1005 398 -1470 57 -307 86 -536 106 -825 12 -185 6 -741 -12 -950 -46
-563 -208 -1272 -426 -1874 -50 -138 -219 -492 -369 -773 -217 -408 -344 -607
-501 -789 -40 -46 -111 -131 -159 -189 -356 -428 -713 -777 -1162 -1138 -300
-241 -436 -332 -758 -507 -654 -355 -1378 -636 -2025 -785 -204 -46 -252 -53
-564 -80 -414 -35 -654 -43 -1078 -37 -507 7 -779 33 -1114 107 -188 41 -753
225 -1059 343 -813 317 -1463 689 -1925 1102 -262 235 -712 719 -985 1060
-195 242 -427 578 -551 795 -257 448 -599 1332 -733 1891 -59 251 -81 462
-109 1059 -27 556 -21 1016 14 1200 8 41 28 161 44 265 157 990 462 1844 902
2525 354 550 889 1165 1429 1645 221 196 263 227 635 475 701 467 1262 712
2130 929 413 103 668 148 970 171 77 6 158 12 180 14 111 10 940 -3 1090 -18z
m-5270 -613 c152 -201 272 -369 267 -372 -4 -3 -25 -19 -45 -35 -34 -26 -39
-27 -50 -13 -7 9 -102 135 -212 280 -110 146 -203 263 -206 261 -4 -2 -9 -18
-13 -36 -8 -38 -76 -188 -86 -188 -4 0 -20 19 -37 43 l-31 42 20 38 c29 57 58
182 58 251 0 56 2 63 28 78 15 10 28 18 29 18 1 0 126 -165 278 -367z m9736
22 c123 -103 225 -191 227 -195 3 -9 -56 -80 -67 -80 -4 0 -74 57 -156 126
-83 69 -167 139 -187 155 l-36 29 -84 -100 c-46 -55 -84 -104 -86 -109 -1 -4
69 -68 158 -142 88 -74 160 -136 160 -139 -1 -3 -16 -23 -35 -44 l-33 -40 -69
57 c-37 32 -111 93 -165 137 l-96 80 -133 -159 -134 -158 -47 40 -47 40 22 26
c12 15 143 172 291 349 148 178 275 321 281 318 7 -2 113 -88 236 -191z
m-10476 -259 c91 -43 169 -109 264 -223 83 -99 125 -173 142 -252 36 -170
-114 -336 -289 -318 -99 10 -173 56 -302 186 -239 240 -281 417 -136 562 56
57 107 79 186 79 54 0 78 -6 135 -34z m10752 -746 c-7 -10 -26 -29 -43 -43
l-31 -26 -117 118 c-64 66 -116 123 -116 127 0 5 17 25 37 46 l37 38 123 -122
c105 -104 120 -124 110 -138z m-11361 165 c76 -31 141 -118 162 -220 6 -27 14
-147 18 -265 4 -118 10 -223 13 -233 5 -14 37 18 146 147 77 91 143 165 147
166 10 0 78 -60 78 -69 0 -4 -33 -46 -72 -92 -40 -47 -88 -103 -106 -125 -19
-21 -73 -85 -120 -141 l-87 -102 -27 27 c-57 54 -70 113 -79 372 -7 188 -12
247 -28 300 -29 95 -82 140 -164 140 -83 0 -168 -87 -169 -172 -1 -43 35 -128
54 -128 21 0 4 -31 -32 -60 -39 -31 -42 -32 -60 -15 -11 10 -31 40 -45 68 -49
99 -27 215 60 315 85 98 203 131 311 87z m12061 -180 c168 -83 272 -261 243
-415 -10 -52 -57 -160 -69 -160 -3 0 -25 17 -49 38 l-43 37 22 50 c30 67 31
155 2 210 -25 48 -94 116 -143 141 -25 13 -57 19 -111 19 -67 0 -83 -4 -152
-38 -93 -46 -201 -148 -241 -228 -81 -162 29 -371 207 -395 39 -6 106 8 165
32 19 8 68 -106 50 -118 -32 -20 -100 -33 -178 -33 -72 0 -94 4 -144 27 -75
36 -162 126 -207 215 -32 63 -34 75 -34 164 0 91 2 99 38 171 47 91 109 164
192 223 157 112 306 132 452 60z m-12860 -936 c303 -41 540 -218 690 -515 l56
-112 -22 -36 c-13 -20 -24 -36 -27 -36 -2 0 -16 24 -30 53 -170 336 -497 550
-875 573 -60 4 -109 9 -109 12 0 3 11 20 26 39 l25 33 94 0 c51 0 129 -5 172
-11z m13603 -51 c22 -36 29 -56 23 -68 -4 -9 -136 -189 -292 -400 -319 -429
-281 -395 -338 -300 l-22 37 90 117 91 117 -93 156 c-52 85 -100 157 -107 160
-7 3 -74 -7 -149 -21 -74 -15 -136 -26 -137 -24 -35 49 -64 109 -54 112 7 3
195 36 418 76 223 39 423 75 445 79 83 18 91 15 125 -41z m-13780 -592 c184
-14 386 -28 448 -32 72 -4 112 -11 112 -18 0 -6 -13 -33 -28 -61 -31 -57 -25
-56 -222 -41 l-105 8 -83 -167 -83 -168 28 -31 c15 -17 61 -65 101 -107 l73
-76 -27 -56 c-16 -32 -31 -57 -35 -57 -4 0 -19 15 -34 33 -15 17 -154 169
-309 337 -154 168 -289 315 -299 327 -17 20 -17 22 10 77 33 68 -8 65 453 32z
m14172 -124 c15 -37 30 -74 33 -83 5 -12 -29 -48 -122 -131 -114 -101 -461
-407 -472 -415 -12 -8 13 -9 109 -2 58 4 211 15 340 23 129 9 262 19 296 22
l60 6 33 -77 c18 -43 31 -78 29 -80 -2 -2 -75 -33 -163 -70 -88 -37 -276 -116
-418 -177 -143 -60 -260 -108 -261 -106 -14 19 -43 105 -38 109 4 4 149 66
322 139 173 73 322 136 330 142 16 10 4 9 -470 -22 -157 -10 -288 -16 -292
-14 -3 2 -14 25 -24 50 l-18 46 55 52 c30 28 153 139 274 245 121 107 231 205
245 218 l25 24 -40 -17 c-78 -32 -491 -207 -568 -240 -43 -19 -82 -34 -87 -34
-11 0 -52 89 -48 102 2 5 98 49 213 98 116 48 300 126 410 173 110 47 205 86
210 86 6 0 22 -30 37 -67z m-14658 -630 l185 -258 181 -64 c99 -34 180 -65
180 -68 0 -15 -35 -112 -40 -112 -4 0 -87 29 -185 63 l-179 64 -303 -76 c-168
-43 -306 -74 -308 -71 -1 3 8 34 21 70 l25 66 207 48 c114 27 218 50 232 53
53 10 54 12 15 58 -87 107 -265 349 -265 361 0 15 40 124 45 124 2 0 87 -116
189 -258z m15100 -509 c3 -10 28 -107 56 -215 58 -227 64 -304 29 -375 -43
-90 -156 -148 -269 -140 -107 7 -171 51 -218 149 -12 24 -37 104 -57 178 -20
74 -39 142 -43 151 -6 14 -28 11 -182 -31 -96 -26 -176 -46 -178 -45 -5 5 -33
117 -30 120 8 5 845 223 865 224 13 0 24 -6 27 -16z m-14704 -318 c0 -3 -7
-34 -16 -69 l-16 -64 -126 -16 c-70 -10 -136 -19 -147 -22 -17 -4 -26 -31 -59
-177 -21 -94 -40 -176 -42 -182 -3 -8 182 -137 243 -170 4 -2 -24 -116 -30
-121 -3 -3 -164 102 -358 233 -195 131 -377 253 -405 271 l-51 33 15 62 c8 34
17 64 19 66 4 5 915 158 951 160 12 0 22 -1 22 -4z m14944 -746 c4 -34 6 -62
4 -63 -2 -1 -111 -15 -243 -30 -303 -36 -397 -51 -445 -76 -77 -40 -111 -128
-91 -238 26 -140 71 -184 195 -190 66 -3 440 34 623 62 19 3 22 -3 28 -56 4
-33 5 -61 3 -63 -1 -2 -138 -20 -303 -40 -345 -42 -408 -42 -494 2 -64 33
-110 87 -142 170 -32 83 -34 267 -3 333 40 87 125 146 242 171 45 9 551 75
603 78 13 1 18 -13 23 -60z m-15732 -55 c70 -20 142 -79 169 -139 22 -48 25
-175 7 -338 -6 -59 -9 -109 -7 -111 2 -3 72 -12 154 -21 225 -24 209 -17 202
-82 -3 -30 -8 -57 -11 -60 -6 -6 -884 90 -898 98 -10 6 22 332 43 439 22 108
74 178 154 208 70 26 111 27 187 6z m508 -1002 l0 -68 -132 -53 c-73 -30 -135
-57 -138 -61 -3 -5 -4 -91 -2 -192 l3 -184 47 -16 c26 -9 89 -31 140 -48 l92
-33 0 -63 c0 -35 -2 -64 -5 -64 -7 0 -813 292 -887 322 -27 10 -28 14 -28 77
l0 68 443 191 c243 105 448 191 455 191 8 1 12 -19 12 -67z m14708 -9 l-3 -57
-44 -9 c-91 -18 -161 -129 -161 -256 0 -153 81 -247 188 -219 53 14 83 69 126
224 47 170 65 211 111 262 47 52 90 72 159 72 69 0 143 -34 180 -83 100 -132
89 -392 -22 -503 -39 -40 -112 -74 -157 -74 l-35 0 0 60 c0 56 2 60 23 60 42
0 101 43 125 90 18 35 22 61 22 129 0 135 -44 201 -133 201 -71 0 -99 -47
-152 -250 -52 -199 -104 -274 -214 -307 -134 -39 -272 51 -317 206 -21 72 -15
246 11 311 27 66 64 114 116 150 52 35 88 48 142 49 l38 1 -3 -57z m-15193
-910 c66 -24 117 -77 145 -149 12 -33 31 -128 43 -211 l21 -153 27 0 c14 0 95
9 179 21 84 11 156 17 160 12 4 -4 10 -31 14 -60 6 -50 6 -51 -21 -57 -73 -15
-875 -117 -880 -112 -13 12 -62 453 -57 501 21 170 196 268 369 208z m15255
-513 c244 -50 446 -92 448 -95 7 -7 -79 -416 -98 -468 -27 -71 -66 -116 -124
-143 -131 -61 -303 -5 -368 120 -32 59 -30 173 6 344 15 74 26 135 24 136 -2
1 -79 17 -173 36 -93 18 -173 36 -178 39 -6 6 11 121 18 121 1 0 201 -41 445
-90z m-14336 -282 c5 -24 -3 -37 -60 -98 -88 -93 -179 -161 -289 -215 -134
-67 -223 -87 -380 -88 -136 0 -235 19 -377 73 -51 19 -59 25 -67 58 -6 20 -9
38 -6 40 2 2 50 -8 106 -23 365 -96 706 -11 994 249 62 55 66 55 79 4z m14135
-694 c228 -79 416 -146 418 -147 4 -5 -137 -407 -164 -468 -60 -136 -182 -189
-317 -138 -103 38 -164 137 -154 252 l4 54 -44 -28 c-54 -34 -126 -58 -295
-99 -151 -35 -162 -36 -152 -12 4 9 14 37 22 62 9 25 19 49 23 53 4 5 94 30
199 57 207 53 244 68 278 119 32 47 78 192 64 200 -6 4 -87 33 -179 65 -92 32
-171 63 -177 67 -6 6 -2 30 10 64 14 43 22 54 34 50 9 -4 202 -71 430 -151z
m-14192 -404 c165 -82 270 -282 242 -462 -36 -233 -279 -409 -546 -396 -235
12 -404 214 -391 467 6 113 38 183 124 267 111 110 256 166 411 160 81 -3 102
-8 160 -36z m13686 -505 c125 -26 277 -125 343 -224 105 -154 94 -341 -30
-510 -158 -215 -493 -213 -714 5 -155 154 -175 367 -52 552 104 156 263 218
453 177z m-13160 -396 c16 -28 27 -53 25 -55 -9 -8 -780 -434 -790 -437 -14
-2 -70 95 -60 105 10 9 785 438 791 438 4 0 19 -23 34 -51z m211 -368 l36 -49
-86 -219 c-47 -120 -117 -296 -155 -392 -38 -96 -67 -176 -66 -178 2 -1 130
85 286 192 155 107 285 195 289 195 5 0 22 -20 40 -45 l31 -45 -62 -43 c-34
-24 -134 -94 -222 -155 -88 -61 -228 -158 -312 -216 -83 -58 -154 -106 -157
-106 -2 0 -20 23 -39 51 l-34 51 44 112 c185 469 263 669 260 672 -2 2 -130
-84 -285 -191 -154 -107 -285 -195 -290 -195 -10 0 -62 74 -62 88 0 4 37 34
83 66 378 264 653 455 659 455 3 1 22 -21 42 -48z m12412 -216 c235 -87 389
-338 334 -543 -55 -201 -219 -353 -380 -351 -78 1 -146 20 -142 40 1 8 9 33
18 56 14 39 17 41 40 33 14 -6 53 -10 88 -10 51 0 70 5 107 28 86 55 150 154
164 254 15 102 -55 231 -171 314 -87 62 -153 87 -234 88 -114 0 -224 -76 -287
-198 -26 -50 -57 -180 -49 -201 5 -15 121 -105 134 -105 7 0 99 122 153 203 4
6 27 -4 52 -23 l45 -32 -75 -107 c-42 -58 -94 -130 -115 -159 l-40 -53 -31 23
c-18 13 -80 59 -139 102 l-108 78 0 51 c0 81 26 185 66 265 61 126 197 241
320 272 60 15 173 4 250 -25z m-11776 -637 c0 -7 -85 -80 -554 -481 l-139
-119 -38 44 c-21 24 -38 46 -39 50 0 4 156 140 347 302 l348 295 37 -42 c20
-23 37 -45 38 -49z m11275 -440 c105 -102 206 -199 225 -215 l34 -31 -182
-184 c-204 -207 -250 -239 -336 -239 -190 0 -307 190 -219 359 l30 58 -84 -4
c-67 -4 -118 2 -251 28 -92 18 -170 36 -174 39 -5 4 16 31 46 60 l53 53 149
-32 c197 -41 298 -49 344 -25 32 16 77 58 140 129 l25 28 -145 138 -145 139
45 45 44 46 106 -103 c58 -57 191 -186 295 -289z m-10873 15 c21 -20 38 -42
38 -47 0 -6 -124 -134 -275 -286 -151 -152 -275 -281 -275 -287 0 -5 45 -52
100 -103 55 -50 100 -97 100 -104 0 -7 -16 -27 -35 -46 l-35 -34 -113 109
c-315 308 -397 391 -397 400 0 6 16 26 35 45 l35 34 108 -107 107 -107 278
285 c153 157 281 285 285 285 3 0 23 -17 44 -37z m9903 -458 c30 -99 94 -306
142 -459 l86 -280 -39 -33 c-22 -19 -46 -38 -54 -42 -11 -6 -80 29 -236 118
-122 69 -314 178 -427 241 -114 63 -206 117 -206 120 0 3 24 24 53 47 l53 41
127 -74 c74 -44 132 -72 139 -68 49 30 287 229 284 238 -26 70 -88 268 -86
271 26 25 96 72 101 67 4 -4 32 -88 63 -187z m-9092 -228 c73 -52 170 -121
217 -154 47 -33 84 -67 84 -75 -1 -8 -104 -161 -229 -339 -126 -178 -240 -341
-254 -361 -14 -21 -30 -38 -34 -38 -7 0 -60 36 -91 61 -4 4 93 151 218 327
124 176 227 324 228 330 2 6 -77 67 -174 136 -98 70 -178 129 -178 131 0 3 12
24 27 46 16 25 31 38 41 34 7 -3 73 -47 145 -98z m8436 -580 c118 -204 221
-382 228 -393 13 -20 9 -24 -68 -68 l-81 -46 -300 266 c-165 146 -302 264
-304 262 -2 -2 30 -176 71 -386 41 -210 75 -387 75 -394 0 -12 -119 -88 -137
-88 -4 1 -45 65 -89 143 -45 78 -146 252 -224 387 -78 135 -142 249 -143 253
-1 5 21 22 48 38 l50 28 172 -297 c94 -163 176 -308 183 -320 6 -13 13 -22 15
-20 3 3 -120 667 -139 751 -5 20 75 72 98 64 7 -3 145 -121 305 -261 160 -141
291 -254 291 -252 0 6 -46 86 -241 423 -71 122 -129 224 -129 227 0 7 83 56
95 56 6 0 107 -168 224 -373z m-7918 221 c51 -28 57 -35 53 -57 -6 -36 -34
-250 -34 -260 0 -10 314 -181 331 -181 6 0 58 43 117 95 l105 95 51 -28 c28
-15 51 -32 51 -38 0 -6 -36 -42 -81 -80 -44 -38 -204 -175 -355 -304 -151
-130 -280 -240 -287 -244 -8 -5 -35 3 -68 21 -61 32 -60 26 -44 163 10 86 90
840 90 847 0 8 16 1 71 -29z m836 -429 c32 -12 63 -26 69 -33 7 -6 26 -80 44
-164 61 -293 70 -307 253 -376 l64 -24 68 181 c37 100 70 185 74 189 7 8 93
-21 107 -35 5 -5 -297 -835 -311 -855 -5 -7 -417 153 -480 187 -93 50 -128 97
-133 184 -7 116 37 205 125 248 38 19 64 24 124 24 l76 -1 -21 36 c-37 58 -53
110 -90 283 -20 91 -36 168 -36 171 0 9 4 8 67 -15z m1093 -368 c74 -17 213
-48 309 -71 96 -22 176 -40 178 -40 1 0 3 -8 3 -17 0 -15 -184 -837 -195 -870
-3 -8 -19 -7 -62 3 -32 8 -168 39 -303 70 -135 30 -253 57 -262 60 -21 6 -22
24 -7 77 8 31 14 36 32 32 12 -2 60 -14 107 -24 311 -73 393 -91 395 -89 2 2
16 62 32 135 l30 132 -96 22 c-257 57 -382 87 -387 91 -6 7 6 81 15 96 5 8 35
5 106 -12 228 -55 379 -86 385 -79 7 9 72 284 68 288 -2 1 -115 28 -253 59
-137 32 -258 59 -267 62 -21 6 -22 24 -7 77 8 29 14 37 27 33 9 -3 78 -19 152
-35z m4533 -43 c9 -29 13 -55 9 -59 -10 -9 -292 -109 -307 -109 -12 0 -52 97
-44 104 5 3 313 114 320 115 3 1 13 -22 22 -51z m-1241 -68 c111 -34 186 -100
243 -215 106 -211 72 -474 -77 -600 -48 -41 -144 -83 -229 -101 -124 -26 -248
-4 -323 58 -38 31 -96 112 -96 133 0 6 21 21 47 34 l48 23 14 -24 c8 -12 34
-42 57 -64 123 -122 392 -56 466 114 42 98 32 277 -22 383 -85 166 -284 216
-471 117 -31 -16 -71 -44 -88 -62 l-32 -33 12 -82 13 -83 30 6 c17 3 77 14
133 25 l102 18 11 -50 c6 -28 7 -53 3 -57 -9 -8 -373 -74 -377 -69 -5 8 -56
305 -56 326 0 50 213 191 320 212 84 16 203 12 272 -9z m-2378 -97 c13 -21
106 -190 206 -376 101 -185 184 -336 186 -334 2 2 18 158 35 348 17 189 33
345 34 347 2 2 28 1 59 -3 44 -6 56 -11 56 -25 0 -9 -18 -212 -40 -450 -22
-238 -40 -435 -40 -437 0 -9 -108 -1 -122 10 -9 6 -74 118 -144 247 -245 454
-268 494 -271 484 -3 -10 -63 -656 -63 -681 0 -13 -9 -14 -57 -8 -32 4 -59 8
-61 10 -3 3 8 133 53 620 13 149 25 273 25 278 0 4 27 7 60 7 58 0 60 -1 84
-37z m1514 -285 c7 -156 15 -362 19 -458 l6 -176 -79 -2 c-43 -2 -178 -7 -299
-12 -121 -5 -235 -10 -252 -10 l-33 0 0 54 0 54 93 6 c50 3 170 9 265 12 l172
7 0 101 c0 55 -3 118 -7 140 l-6 38 -81 -6 c-45 -3 -156 -9 -247 -12 l-166 -7
-6 54 c-4 29 -5 54 -4 55 1 1 114 7 252 14 137 6 251 12 252 14 2 1 0 70 -5
152 l-7 149 -120 -4 c-66 -1 -190 -6 -275 -10 -110 -6 -157 -5 -162 3 -4 6 -8
32 -8 59 l0 47 93 1 c50 1 160 5 242 9 83 3 195 7 251 8 l100 2 12 -282z"/>
<path d="M13349 17500 c-102 -17 -176 -85 -246 -225 -39 -79 -47 -105 -50
-167 -9 -132 57 -244 175 -300 72 -33 190 -32 257 4 65 34 115 87 158 168 66
122 81 217 51 321 -12 42 -28 66 -73 110 -77 75 -171 106 -272 89z"/>
<path d="M10410 15035 c0 -3 9 -15 20 -27 12 -13 20 -36 20 -57 2 -144 9 -246
19 -249 6 -2 11 -10 11 -17 0 -9 -33 8 -81 42 -72 49 -86 55 -118 49 -25 -4
-45 -16 -64 -40 -58 -72 -251 -217 -440 -330 -103 -61 -478 -252 -597 -303
-270 -116 -652 -222 -874 -244 -50 -4 -145 -16 -211 -25 -150 -21 -807 -26
-920 -7 -38 6 -153 21 -254 33 -102 12 -189 22 -195 23 -6 1 -11 -5 -11 -13 0
-11 17 -17 65 -23 36 -4 139 -17 230 -30 154 -21 197 -22 658 -20 551 2 614 7
836 63 165 42 559 171 695 227 184 76 652 325 712 379 8 7 18 14 21 14 18 0
177 120 246 185 108 101 123 101 247 4 203 -159 564 -381 825 -508 161 -78
424 -176 442 -164 17 10 -4 20 -147 68 -166 57 -313 127 -276 133 13 2 28 -1
34 -7 6 -6 22 -11 37 -11 l25 1 -28 15 c-32 17 -31 37 1 42 20 3 22 9 22 76 0
69 -1 73 -27 84 l-28 12 28 -5 c42 -8 34 19 -13 40 -22 10 -40 21 -40 26 0 4
-13 10 -29 14 -16 3 -35 13 -42 21 -6 8 -15 14 -20 14 -22 0 -323 189 -459
288 -130 95 -264 196 -284 214 -19 18 -36 23 -36 13z"/>
<path d="M14445 14371 c-9 -8 -139 -50 -300 -96 -67 -19 -379 -80 -485 -94
-201 -27 -246 -31 -455 -41 -207 -11 -526 -3 -676 16 -26 3 -49 2 -53 -4 -3
-5 28 -12 72 -15 43 -3 89 -10 103 -15 13 -5 87 -13 164 -16 77 -4 142 -12
143 -17 2 -5 15 -9 28 -9 13 0 24 -3 24 -7 1 -5 3 -39 6 -78 10 -114 8 -146
-7 -157 -9 -6 -82 -7 -191 -4 -147 5 -178 4 -178 -7 0 -11 29 -15 122 -20 187
-11 519 -8 561 4 27 7 54 7 93 -1 50 -11 57 -10 69 6 10 14 28 18 91 18 44 1
81 4 84 8 3 3 45 9 93 12 54 4 97 12 110 21 12 8 30 15 40 15 17 0 18 -6 11
-57 -3 -32 -13 -87 -20 -123 -43 -198 -80 -481 -83 -635 -1 -49 -6 -165 -11
-257 -5 -92 -7 -198 -5 -235 3 -37 7 -116 9 -175 l5 -107 -87 5 c-48 2 -98 5
-112 6 -58 3 -178 -15 -276 -43 l-105 -29 -59 62 c-33 34 -60 60 -61 57 -5
-27 -9 -69 -10 -89 0 -34 -19 -80 -33 -80 -6 0 -26 16 -45 36 -37 41 -51 35
-51 -22 0 -18 -8 -38 -19 -48 -19 -17 -21 -16 -69 28 -27 25 -52 46 -55 46 -3
0 -9 -20 -12 -45 -4 -24 -13 -49 -21 -56 -10 -8 -11 -16 -3 -30 11 -22 2 -24
-25 -4 -10 7 -15 18 -11 24 4 7 -5 11 -22 12 -139 3 -243 10 -270 18 -26 7
-33 7 -33 -4 0 -16 15 -21 65 -20 22 0 43 -4 47 -9 3 -5 32 -9 62 -8 53 1 56
0 56 -23 0 -19 -7 -26 -27 -30 -36 -7 -101 -25 -119 -32 -9 -3 -14 2 -14 14 0
20 -45 52 -56 40 -3 -3 3 -33 15 -66 12 -34 21 -67 21 -75 0 -31 26 -38 87
-25 32 7 63 16 70 22 7 5 17 6 23 2 5 -3 56 3 113 14 56 10 143 24 192 30 50
6 144 18 211 26 134 17 287 25 506 27 160 1 178 -4 178 -51 0 -47 61 -363 101
-522 22 -86 70 -246 108 -355 69 -201 79 -226 112 -299 9 -22 28 -68 42 -102
13 -35 26 -61 29 -58 6 6 -15 76 -33 112 -6 11 -8 26 -5 32 4 6 3 11 -1 11 -5
0 -14 20 -21 46 -7 25 -17 42 -22 39 -13 -8 -13 1 0 25 11 20 3 53 -10 45 -5
-3 -7 3 -5 12 2 10 4 32 4 50 1 22 5 31 14 27 9 -3 12 13 9 73 -3 43 -8 79
-13 81 -13 5 -11 82 2 82 11 0 8 57 -6 113 -6 21 -4 27 9 27 19 0 20 7 1 40
-8 14 -14 51 -14 85 l0 60 18 -50 c10 -27 32 -97 51 -155 43 -138 71 -219 87
-250 7 -14 13 -32 13 -40 0 -9 4 -20 8 -25 4 -6 14 -28 21 -50 40 -121 190
-436 313 -656 120 -216 182 -370 243 -604 95 -362 106 -838 30 -1255 -94 -509
-313 -1016 -616 -1420 -31 -41 -68 -88 -83 -103 -14 -15 -26 -30 -26 -32 0 -7
-47 -55 -54 -55 -3 0 -6 12 -6 28 0 17 12 38 30 56 17 16 28 31 25 34 -2 2
-11 -3 -20 -12 -17 -17 -35 -21 -35 -8 0 4 4 12 9 18 5 5 11 45 12 89 2 67 0
81 -14 83 -15 3 -15 6 -1 27 8 13 17 34 18 47 5 33 17 68 25 68 3 0 12 15 20
33 8 17 27 51 43 75 15 24 28 45 28 48 0 17 -35 -31 -164 -224 -134 -200 -156
-229 -278 -348 -199 -194 -373 -339 -513 -424 -22 -14 -111 -60 -197 -102
-146 -71 -185 -98 -140 -98 15 0 17 -11 14 -112 -3 -92 -8 -118 -24 -140 -11
-16 -28 -28 -37 -28 -10 0 -24 -7 -31 -15 -7 -8 -21 -15 -31 -15 -11 0 -19 -3
-19 -7 0 -11 -58 -43 -77 -43 -8 0 -28 -9 -44 -21 -16 -11 -29 -18 -29 -14 0
3 -13 -2 -30 -12 -16 -9 -30 -23 -30 -30 0 -13 -16 -17 -59 -13 -18 1 -22 -2
-17 -15 4 -12 2 -15 -12 -11 -25 8 -43 -6 -32 -24 6 -8 10 -10 10 -4 0 7 17
15 38 19 20 4 42 10 47 14 6 4 26 14 45 21 19 7 62 26 95 43 33 16 92 42 132
58 244 97 523 243 703 367 214 148 490 402 659 607 271 328 493 749 630 1195
80 261 121 501 142 825 19 293 -12 593 -91 900 -46 178 -160 451 -246 587 -70
110 -233 463 -307 663 -154 416 -232 745 -289 1215 -17 144 -17 741 0 880 54
426 144 751 298 1067 29 62 54 115 54 118 0 8 -15 6 -25 -4z m-125 -170 c-16
-32 -39 -82 -50 -111 -12 -30 -30 -73 -41 -96 -10 -24 -19 -48 -19 -54 0 -7
-6 -26 -14 -43 -8 -18 -19 -45 -24 -62 -10 -28 -10 -26 -11 23 -1 33 3 51 9
47 10 -6 14 6 10 39 -1 10 4 30 12 44 10 20 10 26 1 29 -7 3 -13 18 -13 34 0
16 -4 29 -10 29 -14 0 -12 84 3 99 10 11 8 12 -10 6 -13 -3 -23 -2 -23 4 0 10
159 68 192 70 14 1 13 -8 -12 -58z"/>
<path d="M10540 12446 c347 -72 604 -163 910 -322 148 -77 280 -155 280 -164
0 -3 -15 -10 -32 -15 -73 -22 -8 -62 105 -66 56 -2 105 -29 227 -127 332 -267
596 -545 829 -873 44 -63 84 -118 89 -124 9 -11 157 -257 192 -320 32 -57 170
-332 170 -339 0 -3 12 -31 26 -63 14 -32 31 -71 39 -88 65 -146 156 -428 214
-665 62 -250 70 -313 46 -361 -42 -80 -259 -441 -281 -464 -25 -27 -47 -34
-38 -12 10 28 -67 292 -147 502 -95 251 -263 553 -408 735 -19 25 -38 47 -42
50 -3 3 -10 12 -15 21 -40 71 -281 315 -417 423 -141 111 -306 215 -459 290
-149 73 -399 163 -492 177 -34 5 -74 12 -91 14 -62 10 17 -16 92 -30 299 -57
743 -310 1028 -585 107 -102 209 -213 278 -300 75 -95 196 -270 223 -321 9
-19 20 -36 23 -39 13 -10 151 -281 151 -296 0 -5 7 -22 16 -39 18 -34 84 -206
84 -218 0 -5 6 -23 14 -40 19 -43 66 -217 66 -244 0 -12 4 -32 9 -45 5 -13 14
-51 20 -86 14 -75 28 -51 -148 -253 -250 -287 -387 -427 -656 -668 -94 -84
-332 -272 -415 -328 -136 -91 -252 -163 -264 -163 -2 0 -6 42 -9 93 -8 111
-35 219 -72 284 -15 26 -37 66 -48 88 -25 51 -124 145 -151 145 -42 0 -49 -13
-37 -69 17 -79 14 -288 -5 -362 -33 -129 -118 -229 -227 -271 -29 -11 -70 -26
-91 -34 -22 -8 -80 -19 -130 -25 -85 -11 -95 -10 -156 12 -61 22 -84 24 -360
29 -334 7 -316 4 -547 108 -187 85 -513 282 -691 418 -60 46 -62 50 -51 106
19 89 -31 118 -89 53 l-31 -36 -102 83 c-121 98 -202 170 -324 287 -49 48
-139 129 -200 180 -60 52 -113 99 -118 106 -4 7 -3 80 3 162 5 81 12 215 14
296 5 139 7 151 30 181 49 65 86 191 89 307 2 52 6 74 17 79 43 21 93 40 96
37 2 -2 6 -105 8 -228 3 -189 21 -456 31 -467 2 -2 17 4 35 13 18 9 50 45 77
87 50 77 163 296 163 316 0 22 28 13 34 -11 13 -52 241 -292 336 -355 14 -9
42 -31 63 -49 21 -19 41 -31 46 -29 31 20 9 335 -38 555 -12 52 -21 98 -21
103 0 4 27 8 61 8 146 0 386 43 418 75 14 13 9 21 -39 66 -30 28 -82 71 -115
94 -65 46 -282 139 -352 150 -27 4 -43 12 -43 21 0 8 6 14 13 14 13 0 217 207
217 221 0 23 -267 30 -380 10 -78 -14 -247 -69 -256 -82 -9 -15 -32 9 -56 55
-11 23 -50 76 -86 119 -52 62 -79 84 -128 107 -34 17 -74 30 -88 30 -14 0 -26
4 -26 9 0 20 107 191 163 261 109 135 228 243 202 183 -27 -61 -21 -270 11
-381 18 -64 25 -74 39 -64 24 17 105 138 125 188 12 30 29 54 36 54 8 0 14 -5
14 -11 0 -29 153 -185 234 -238 54 -36 161 -108 190 -128 17 -12 36 -22 43
-22 32 -2 27 178 -8 309 -28 105 -28 105 1 103 132 -13 199 -14 271 -4 203 28
449 90 449 112 0 40 -168 189 -244 218 -28 10 -80 33 -116 49 -97 45 -233 82
-302 82 -69 0 -68 -14 -13 129 37 96 80 284 69 302 -14 24 -168 -39 -283 -116
-38 -25 -73 -45 -78 -45 -5 0 -51 -39 -101 -86 -51 -48 -94 -85 -96 -83 -2 2
-10 24 -18 49 -28 85 -102 240 -114 240 -17 0 -99 -193 -118 -278 -17 -73 -14
-168 5 -220 15 -40 10 -51 -33 -72 -94 -44 -291 -247 -360 -370 -22 -38 -42
-32 -27 8 27 71 4 585 -30 675 -13 33 -6 38 32 22 18 -7 71 -16 119 -20 73 -6
89 -4 94 8 9 25 -21 69 -75 112 -27 22 -50 45 -51 52 0 6 16 32 35 58 20 25
46 66 58 91 l22 45 435 3 c457 4 671 17 1050 66 342 44 398 52 540 77 129 22
378 72 445 88 225 55 355 85 368 85 31 0 113 33 150 60 l38 28 -100 -5 c-67
-4 -105 -2 -114 5 -10 9 -29 3 -80 -24 -221 -117 -651 -191 -1542 -264 -66 -5
-176 -15 -245 -21 -69 -6 -191 -11 -273 -10 -81 0 -171 -4 -200 -10 -63 -13
-263 -12 -288 1 -9 5 -28 38 -41 72 -13 34 -28 63 -34 65 -5 2 -20 -17 -32
-43 -20 -39 -25 -44 -38 -33 -9 7 -26 33 -39 58 -13 25 -30 55 -38 65 -14 19
-16 17 -36 -29 -12 -26 -19 -50 -16 -53 8 -8 -15 -42 -29 -42 -7 0 -30 34 -50
75 -20 41 -39 75 -41 75 -3 0 -12 -17 -20 -37 l-16 -37 -17 29 c-10 17 -29 53
-42 82 -14 29 -30 54 -36 57 -6 2 -17 -13 -23 -35 -7 -21 -17 -39 -24 -39 -7
0 -32 25 -56 55 -25 31 -49 54 -55 52 -12 -4 -24 -69 -25 -139 -1 -26 -4 -49
-8 -51 -14 -8 -74 5 -78 17 -2 6 -6 27 -9 46 -11 62 -20 67 -55 29 -17 -19
-33 -42 -36 -51 -9 -27 -45 -23 -46 5 -1 12 -2 29 -3 39 -1 9 -4 20 -8 24 -5
4 -8 16 -8 26 0 28 -15 22 -54 -23 -33 -40 -62 -46 -52 -11 3 10 -2 50 -12 91
l-18 73 -50 -54 c-27 -30 -62 -63 -77 -72 -15 -10 -27 -26 -27 -36 0 -9 -9
-25 -20 -35 -11 -10 -20 -26 -20 -37 0 -11 -7 -18 -17 -18 -27 0 -39 12 -46
45 -9 45 -36 105 -47 105 -6 0 -13 -13 -16 -30 -4 -16 -10 -30 -14 -30 -11 0
-38 44 -46 74 -9 36 -30 52 -42 30 -16 -29 -58 -10 -88 42 -25 43 -28 45 -41
28 -7 -10 -13 -24 -13 -31 0 -7 -9 -17 -20 -23 -18 -9 -23 -7 -38 19 -18 33
-27 37 -37 21 -3 -5 -21 -10 -40 -10 -29 0 -39 7 -67 46 -29 40 -34 44 -43 29
-5 -10 -20 -30 -32 -44 -21 -26 -21 -26 -43 -6 -18 16 -23 17 -30 5 -12 -18
-12 -41 -2 -57 10 -17 92 -53 120 -53 33 0 99 -36 112 -61 19 -35 93 -59 290
-94 41 -7 120 -30 175 -50 55 -21 118 -42 140 -48 22 -5 60 -15 85 -22 25 -7
72 -16 105 -20 33 -4 65 -10 70 -15 6 -4 35 -10 65 -13 173 -19 179 -21 180
-58 0 -14 -8 -15 -52 -8 -95 15 -303 15 -313 0 -7 -12 55 -71 109 -106 28 -17
80 -41 116 -53 81 -26 140 -50 140 -58 0 -3 -14 -23 -30 -44 -51 -65 -98 -200
-69 -200 53 0 196 57 240 96 38 34 39 23 55 -342 7 -157 -3 -404 -15 -404 -5
0 -16 17 -25 38 -23 50 -150 182 -201 209 -22 11 -74 39 -115 61 -84 45 -118
55 -242 72 -49 7 -88 16 -88 21 0 4 11 25 25 46 82 120 171 365 160 440 -3 24
-9 45 -13 47 -22 14 -292 -157 -292 -184 0 -6 -7 -10 -15 -10 -10 0 -15 10
-15 34 0 72 -50 258 -100 369 -12 26 -48 76 -80 110 l-58 62 -14 -35 c-59
-143 -112 -359 -124 -506 -7 -81 -8 -85 -28 -79 -12 4 -65 9 -118 12 -177 10
-461 -39 -472 -81 -3 -11 -3 -22 -1 -24 2 -3 39 5 83 17 99 26 267 51 352 50
36 0 97 -6 135 -13 39 -8 77 -10 85 -6 17 9 62 -21 134 -88 61 -56 97 -82 113
-82 11 0 13 5 8 18 -5 9 -14 42 -20 72 -7 30 -18 75 -24 100 -25 101 -41 191
-40 222 1 23 5 13 13 -32 7 -36 16 -72 20 -79 8 -13 14 -38 46 -191 5 -25 17
-71 26 -103 10 -31 15 -59 13 -61 -2 -3 -42 8 -89 23 -47 16 -119 31 -160 35
-66 5 -110 14 -250 46 -52 13 -190 30 -230 30 -42 -1 -24 -15 30 -24 19 -3 89
-15 155 -26 66 -12 155 -25 197 -30 79 -9 239 -45 270 -61 9 -5 29 -10 44 -11
38 -4 41 -24 7 -66 -16 -20 -36 -48 -45 -62 -16 -24 -120 -147 -242 -284 -32
-37 -56 -70 -52 -74 4 -4 19 7 33 23 14 17 58 66 98 110 140 154 186 208 207
246 32 58 64 52 34 -5 -7 -15 -19 -60 -27 -101 -8 -48 -18 -75 -26 -75 -7 0
-13 -5 -13 -11 0 -17 -160 -172 -223 -215 -31 -21 -81 -56 -110 -76 -61 -44
-156 -93 -164 -84 -8 8 17 36 32 36 16 0 38 27 125 151 36 50 83 113 105 139
185 219 249 305 241 326 -3 8 -18 14 -33 14 -15 0 -55 7 -88 15 -69 17 -235
44 -315 51 -44 4 -289 41 -451 69 -20 3 -31 -3 -49 -27 -22 -30 -22 -32 -5
-45 11 -7 24 -13 30 -13 6 0 63 -26 127 -59 129 -65 317 -118 390 -108 48 6
49 -2 4 -90 -69 -136 -141 -354 -152 -458 -8 -78 -3 -80 76 -30 30 19 70 41
89 50 62 28 235 159 307 233 39 39 75 72 81 72 5 0 22 -23 37 -51 32 -57 141
-179 162 -179 25 0 35 41 41 163 5 111 -6 267 -22 308 -10 27 18 29 98 8 112
-29 256 -87 307 -124 70 -52 145 -134 180 -198 17 -32 29 -61 26 -64 -3 -3
-29 -7 -58 -9 -87 -5 -263 -100 -362 -194 -125 -119 -301 -348 -282 -367 3 -4
8 -4 9 -2 2 2 23 31 47 64 125 172 303 346 407 398 95 47 158 67 238 72 37 2
70 7 74 10 3 4 -4 14 -16 23 -12 9 -38 49 -58 89 -68 137 -213 244 -420 311
-123 39 -129 57 -10 27 33 -9 112 -41 175 -72 100 -49 125 -66 196 -137 80
-80 134 -165 148 -233 7 -30 5 -32 -41 -53 -26 -12 -72 -24 -102 -28 -38 -5
-55 -12 -56 -22 -2 -9 -47 -61 -101 -116 -114 -116 -150 -177 -160 -275 -6
-59 -4 -68 17 -93 23 -26 30 -28 107 -29 64 -1 82 -5 82 -16 0 -8 9 -34 20
-57 l21 -42 -45 -63 c-24 -35 -59 -93 -77 -129 -32 -64 -33 -68 -33 -200 -1
-115 2 -140 17 -163 25 -39 39 -41 88 -18 24 12 46 18 50 14 4 -5 3 -30 -2
-58 -4 -27 -17 -113 -29 -189 -11 -77 -23 -142 -25 -145 -3 -2 -15 5 -28 16
-12 12 -78 57 -147 101 l-125 80 -2 158 c-2 220 -10 321 -29 377 -9 27 -13 52
-8 56 11 9 133 47 184 57 48 9 90 32 90 48 0 19 -98 106 -119 106 -9 0 -25 7
-35 15 -34 26 -225 79 -250 69 -32 -12 -26 19 11 55 21 21 87 93 147 159 60
67 113 122 116 122 4 0 35 23 70 51 35 28 88 62 117 76 61 29 74 43 41 43 -87
0 -353 -224 -483 -406 -17 -23 -42 -51 -55 -62 -24 -19 -28 -19 -70 -5 -25 8
-52 21 -60 28 -23 19 -75 44 -143 68 -55 19 -81 22 -230 21 -92 0 -170 -3
-173 -7 -7 -7 53 -83 119 -150 26 -26 47 -52 47 -57 0 -5 -21 -12 -47 -16 -61
-9 -255 -75 -324 -109 -30 -15 -79 -44 -109 -64 -30 -21 -75 -49 -100 -63 -25
-14 -56 -38 -69 -52 -28 -30 -29 -29 79 -45 117 -18 198 -21 311 -12 57 5 107
6 111 2 4 -4 3 -20 -2 -36 -18 -55 -49 -160 -60 -202 -9 -36 -18 -47 -53 -64
-142 -72 -326 -216 -651 -512 l-60 -54 22 -51 c12 -28 22 -57 22 -64 0 -8 6
-23 14 -34 14 -19 15 -19 34 1 62 65 230 200 341 274 35 24 106 61 158 82 78
31 98 36 113 27 15 -10 23 -9 37 4 10 9 45 28 78 43 120 53 282 44 463 -25
137 -53 529 -256 650 -338 18 -12 -5 -149 -85 -489 -24 -104 -28 -113 -49
-113 -29 0 -39 -32 -31 -98 4 -28 1 -59 -6 -75 l-12 -28 -64 51 c-35 28 -71
50 -80 48 -31 -6 -25 -74 14 -170 11 -27 -9 -22 -60 14 -43 30 -46 31 -62 15
-15 -15 -16 -21 -4 -50 31 -75 35 -72 -86 -73 -95 0 -116 -4 -172 -28 -36 -15
-79 -39 -96 -52 -18 -13 -37 -24 -42 -24 -6 0 -30 -21 -54 -47 -36 -39 -41
-48 -26 -51 28 -6 249 38 280 55 48 25 45 3 -5 -41 -27 -23 -48 -46 -48 -50 0
-5 15 -6 33 -2 82 15 379 35 542 37 103 2 198 8 221 14 38 11 41 11 37 -6 -3
-10 -21 -28 -39 -40 -33 -20 -104 -98 -104 -114 0 -4 10 -5 22 -1 13 3 114 8
225 11 230 6 438 -10 593 -46 135 -31 145 -37 242 -132 52 -51 112 -100 136
-111 23 -10 42 -22 42 -25 0 -4 -30 -12 -66 -18 -90 -16 -138 -53 -142 -111
-3 -36 1 -44 36 -76 65 -60 174 -124 232 -137 65 -14 203 -6 274 16 51 16 66
13 66 -11 0 -31 43 -201 60 -239 10 -22 29 -67 41 -100 12 -33 27 -67 33 -75
7 -8 36 -64 66 -124 47 -96 53 -115 50 -160 -8 -124 -2 -166 32 -224 20 -34
44 -60 63 -68 17 -7 45 -28 62 -47 21 -22 58 -45 101 -61 58 -23 83 -26 182
-26 92 0 126 4 169 20 87 33 129 58 136 80 4 11 21 27 39 34 23 10 45 33 70
75 l37 61 -3 107 -3 108 67 135 c36 74 79 164 93 200 15 36 31 70 36 76 9 11
22 66 43 181 6 34 14 64 17 67 3 3 30 -2 60 -11 76 -24 270 -23 319 1 49 23
129 75 177 114 42 33 60 74 49 110 -10 30 -61 61 -128 78 -95 23 -97 25 -59
41 19 8 59 31 90 52 31 20 90 56 131 78 243 132 545 352 850 619 167 145 305
296 535 584 33 41 67 84 77 95 152 186 469 606 565 750 249 373 359 585 418
801 15 55 53 194 85 309 32 116 79 284 104 374 26 91 52 168 58 172 8 5 19 -7
31 -37 11 -24 23 -44 28 -44 9 0 -17 67 -35 90 -6 8 -22 35 -35 60 -13 25 -36
61 -50 80 -19 26 -26 46 -25 78 0 23 -2 42 -6 42 -4 0 -8 -28 -9 -62 -2 -91
-29 -299 -51 -398 -57 -261 -146 -481 -350 -865 -95 -180 -119 -209 -121 -142
0 17 -13 82 -30 142 -16 61 -34 128 -39 150 -12 47 -59 201 -70 230 -4 11 -22
61 -40 110 -17 50 -35 99 -40 110 -5 11 -20 47 -34 80 -67 165 -209 449 -285
572 -119 193 -317 478 -370 533 -9 9 -36 42 -61 75 -53 70 -359 380 -445 450
-33 28 -62 52 -65 55 -19 20 -153 122 -188 144 -24 15 -41 30 -38 34 4 3 12 0
18 -6 14 -14 128 -16 128 -3 0 6 -13 30 -30 54 -16 25 -47 80 -67 123 -34 74
-48 93 -65 94 -13 0 -37 -31 -33 -43 2 -7 6 -31 9 -54 8 -53 -8 -57 -56 -14
-18 15 -46 35 -63 44 -35 18 -81 60 -87 79 -4 11 -8 10 -21 -1 -22 -17 -22
-69 0 -93 9 -10 -27 6 -81 37 -99 56 -305 155 -406 195 -185 74 -467 155 -640
184 -161 26 -214 28 -90 2z m-2313 -939 c51 -77 83 -153 83 -197 0 -39 11 -38
106 10 136 68 174 82 174 64 0 -28 -82 -177 -126 -230 -23 -28 -39 -55 -36
-60 4 -5 26 -22 48 -37 46 -31 90 -74 83 -82 -10 -10 -110 8 -106 19 2 6 12
10 21 10 9 -1 15 3 13 10 -3 6 -10 10 -17 8 -7 -2 -23 7 -36 19 -13 12 -24 18
-24 13 0 -5 -4 -3 -9 4 -5 8 -20 15 -35 15 -39 3 -33 27 23 85 55 57 141 164
141 176 0 15 -29 -12 -119 -111 -50 -56 -101 -105 -111 -108 -12 -4 -40 6 -75
25 -59 33 -76 33 -68 -1 5 -19 4 -20 -14 -8 -12 7 -18 19 -16 29 3 13 -14 26
-71 55 -63 31 -87 38 -146 40 -88 3 -113 20 -45 30 65 10 173 1 215 -19 19 -8
55 -31 80 -49 66 -49 138 -88 145 -77 3 5 1 18 -5 29 -5 11 -10 29 -10 40 0
26 -67 234 -90 281 -10 19 -29 47 -43 61 -14 13 -29 38 -33 54 l-7 30 32 -30
c18 -16 53 -61 78 -98z m-943 -93 c77 -97 135 -277 162 -506 3 -32 10 -58 15
-58 5 0 20 17 33 38 13 20 37 49 52 63 48 44 197 139 219 139 12 0 4 -83 -16
-144 -22 -73 -93 -227 -134 -291 -13 -22 -28 -47 -32 -55 -3 -8 -10 -18 -15
-21 -5 -3 -1 -55 8 -115 12 -79 15 -147 11 -247 -3 -76 -8 -141 -11 -144 -8
-9 -93 87 -112 127 -9 19 -27 50 -41 68 -13 17 -20 32 -16 32 9 0 69 -88 80
-117 7 -17 32 -42 44 -43 3 0 6 23 8 50 1 28 -2 50 -8 50 -5 0 -12 24 -16 53
-4 28 -18 101 -31 161 -31 142 -31 140 6 121 34 -18 40 -18 40 -5 0 6 -6 10
-12 10 -7 0 -21 7 -32 15 -18 13 -17 16 21 62 76 93 207 297 201 315 -3 9 -84
-101 -223 -303 -29 -41 -45 -45 -45 -9 0 16 -4 31 -9 34 -4 3 -11 25 -14 49
-9 66 -72 318 -111 442 -54 174 -60 190 -67 195 -8 6 1 70 10 70 3 0 19 -16
35 -36z m2294 -236 c-3 -7 -13 -47 -23 -88 -25 -110 -83 -254 -111 -281 -40
-37 -31 -44 59 -46 99 -1 195 -23 302 -67 44 -19 92 -37 107 -40 50 -11 258
-162 258 -187 0 -12 -138 -50 -260 -71 -122 -22 -328 -29 -434 -15 -58 7 -58
7 -51 -15 38 -122 65 -253 65 -317 l0 -74 -22 19 c-20 18 -78 58 -127 89 -36
23 -128 94 -140 109 -25 30 14 8 59 -34 23 -21 54 -44 71 -50 16 -7 29 -16 29
-21 0 -5 6 -9 13 -9 6 0 23 -12 37 -26 30 -32 39 -14 11 22 -12 15 -21 32 -21
39 0 6 -18 32 -41 56 -22 24 -61 73 -86 109 -49 72 -95 133 -151 199 -63 76
-74 91 -65 91 15 0 117 -111 180 -195 123 -166 146 -195 149 -195 11 0 -58
110 -129 206 -68 92 -111 142 -215 251 -21 21 -1 45 201 245 170 169 219 227
131 155 -21 -17 -32 -23 -24 -12 26 35 53 55 72 55 10 0 18 6 18 14 0 8 7 16
15 20 8 3 15 11 15 18 1 13 75 57 99 57 7 1 11 -5 9 -11z m-638 -71 c0 -7 7
-25 16 -42 19 -35 60 -149 78 -215 9 -36 9 -50 -1 -70 -16 -32 -17 -60 0 -60
8 0 8 -3 1 -8 -6 -4 -13 -15 -17 -24 -3 -10 -11 -18 -17 -18 -5 0 -10 8 -10
18 -1 9 -8 35 -16 57 -8 22 -26 93 -39 158 -13 65 -26 122 -30 125 -4 4 -13
-2 -21 -12 -19 -27 -18 -14 5 36 11 24 22 51 25 61 6 19 26 14 26 -6z m-670
-22 c0 -3 -11 -16 -25 -29 -14 -13 -25 -26 -25 -30 0 -13 27 -5 48 14 30 28
58 15 34 -15 -32 -39 -121 -93 -204 -125 l-50 -19 7 37 c11 57 74 156 90 140
4 -4 -3 -17 -15 -30 -27 -27 -60 -79 -60 -93 0 -5 18 11 40 35 41 46 52 48 24
5 -21 -32 -10 -32 33 1 18 14 33 34 33 44 0 11 9 25 20 32 11 7 20 18 20 25 0
7 7 13 15 13 8 0 15 -2 15 -5z m64 -157 c28 -211 37 -361 34 -548 -4 -202 -15
-277 -39 -253 -6 6 -6 49 1 124 18 211 11 553 -16 694 -4 25 -3 36 4 32 5 -4
12 -26 16 -49z m691 -408 l2 -95 -53 -107 c-29 -59 -63 -122 -76 -140 -13 -18
-24 -35 -25 -37 -8 -12 -14 13 -18 75 -2 38 0 58 4 44 4 -16 9 -21 14 -13 13
21 38 96 57 168 32 124 64 205 80 203 11 -3 14 -24 15 -98z m-300 -8 c-56 -53
-116 -117 -135 -142 -19 -25 -38 -47 -41 -50 -12 -9 -109 -181 -114 -203 -6
-23 -85 -76 -85 -57 0 18 117 207 178 287 51 68 110 126 237 236 17 15 37 26
45 26 8 0 -30 -43 -85 -97z m-385 -497 c14 -16 16 -295 4 -385 -15 -108 -87
-207 -177 -245 -38 -16 -49 -9 -77 44 -24 47 -8 235 26 303 8 15 29 69 48 120
48 133 55 145 90 162 40 20 70 20 86 1z m90 -40 c39 -49 169 -300 170 -327 0
-9 -13 -27 -29 -40 -15 -13 -52 -57 -80 -96 -29 -40 -59 -72 -66 -72 -22 0
-77 70 -70 89 35 85 37 103 33 297 -2 107 -1 194 2 194 3 -1 21 -21 40 -45z
m-257 5 c-3 -10 -11 -25 -19 -31 -8 -6 -14 -18 -14 -26 0 -7 -20 -64 -44 -126
-46 -116 -64 -177 -68 -237 l-3 -35 -63 -3 c-87 -4 -96 5 -90 89 7 86 40 143
152 257 64 66 140 132 152 132 1 0 0 -9 -3 -20z m353 -12 c27 -18 66 -48 88
-68 51 -47 134 -162 119 -167 -7 -3 -29 -18 -49 -34 -21 -16 -41 -28 -45 -27
-4 2 -35 59 -70 128 -34 69 -73 139 -86 156 -41 55 -28 58 43 12z m884 -147
c0 -19 -177 -189 -218 -210 -52 -27 -56 -51 -8 -51 82 0 206 -37 351 -105 55
-25 215 -140 215 -154 0 -10 -49 -21 -91 -21 -16 0 -29 4 -29 9 0 5 -23 14
-50 21 -28 7 -56 20 -63 31 -7 10 -26 23 -41 29 -37 14 -41 13 -26 -5 16 -19
9 -28 -14 -19 -9 3 -15 13 -14 22 3 17 -91 70 -124 71 -10 1 -18 5 -18 9 0 8
-58 32 -78 32 -23 0 0 -29 28 -35 16 -3 34 -13 41 -21 9 -11 8 -14 -10 -14
-11 0 -21 4 -21 10 0 5 -15 16 -34 24 -19 8 -39 23 -45 34 -9 17 -228 132
-252 132 -18 0 -9 19 13 26 13 4 51 20 85 35 33 16 65 29 69 29 5 0 40 12 77
26 43 17 64 29 57 34 -7 4 -24 4 -39 -1 -90 -28 -222 -79 -254 -98 -51 -28
-66 -27 -78 9 -6 16 -15 27 -21 24 -6 -4 -6 -9 2 -14 9 -6 9 -9 0 -15 -7 -4
-18 2 -26 14 -18 25 -33 19 -102 -36 -24 -20 -45 -33 -48 -30 -9 8 99 89 146
109 25 11 63 28 85 37 37 17 174 54 235 64 51 9 300 7 300 -2z m-2265 -196
c87 -13 257 -81 307 -123 10 -8 33 -15 50 -14 42 1 190 -33 248 -57 25 -11 59
-24 76 -31 17 -6 47 -27 65 -46 42 -44 40 -45 -111 -79 -63 -15 -122 -28 -131
-31 -14 -4 -13 -14 9 -87 23 -76 25 -100 27 -325 2 -133 -1 -244 -5 -247 -4
-3 -14 3 -21 12 -8 9 -39 34 -69 57 -70 51 -160 136 -160 150 0 6 21 -12 48
-39 26 -28 64 -61 85 -75 20 -14 37 -29 37 -33 0 -5 5 -5 10 -2 7 4 4 19 -10
41 -11 20 -20 47 -20 62 0 15 -5 43 -10 62 -6 19 -13 53 -16 75 -3 22 -14 83
-25 135 -10 52 -27 145 -38 205 -10 61 -22 122 -26 138 -7 26 -6 27 36 27 43
1 44 1 19 15 -14 8 -33 14 -42 15 -10 0 -18 5 -18 10 0 6 -13 10 -28 10 -15 0
-32 4 -37 9 -17 15 -163 71 -185 71 -11 0 -33 6 -48 14 -15 7 -38 17 -51 21
-20 6 -23 4 -17 -10 5 -14 3 -16 -11 -10 -10 4 -33 13 -50 19 -18 7 -36 15
-39 19 -9 9 -44 9 -44 1 0 -3 25 -31 56 -62 30 -31 60 -65 66 -77 5 -11 -22
14 -61 55 -39 41 -80 84 -91 95 -11 12 -20 24 -20 27 0 14 156 16 245 3z
m1731 -81 c1 -49 9 -168 23 -358 l8 -99 -39 -86 c-83 -180 -201 -391 -219
-391 -4 0 -7 22 -6 50 1 27 5 50 8 50 3 0 11 26 18 58 18 88 34 147 41 152 3
3 14 52 24 110 47 282 83 459 112 558 9 32 29 2 30 -44z m-56 39 c0 -5 -18
-33 -40 -63 -22 -30 -63 -90 -92 -132 l-53 -78 -80 -26 c-110 -35 -165 -45
-165 -29 0 7 7 18 15 25 8 7 16 22 16 34 1 17 2 17 6 4 6 -24 8 -24 50 22 24
28 39 37 44 29 5 -8 22 2 54 32 26 24 54 47 63 51 10 4 51 37 92 72 72 63 90
75 90 59z m122 -20 c10 -9 18 -21 18 -27 0 -6 63 -69 141 -141 77 -71 147
-143 155 -158 42 -79 119 -637 88 -637 -22 0 -314 263 -304 273 3 3 59 -46
125 -109 66 -63 122 -109 124 -103 3 11 -40 120 -95 235 -19 39 -34 74 -34 78
0 3 -50 109 -112 234 -154 314 -151 307 -133 292 8 -7 15 -19 15 -26 0 -8 4
-14 9 -14 17 0 194 -355 282 -562 13 -32 28 -58 33 -58 4 0 5 8 1 18 -4 9 -20
51 -35 93 -16 42 -33 85 -39 95 -5 11 -34 71 -62 134 -29 63 -60 126 -69 140
-10 14 -28 48 -41 75 -12 28 -32 64 -44 80 -45 62 -67 105 -54 105 7 0 21 -7
31 -17z m-573 -129 l39 -37 -23 -46 c-59 -121 -58 -151 6 -151 l42 0 -6 -82
c-3 -49 -16 -116 -31 -161 -26 -77 -77 -157 -102 -157 -6 0 -28 18 -47 39 -25
28 -39 55 -47 98 -16 76 -7 226 19 323 11 41 21 85 21 96 0 16 67 102 88 113
1 0 20 -15 41 -35z m-984 -9 c0 -5 -10 -11 -23 -13 -13 -2 -21 -9 -19 -15 2
-7 12 -10 22 -9 16 3 17 1 6 -12 -8 -9 -18 -16 -23 -16 -5 0 -52 -26 -104 -57
-52 -32 -107 -64 -122 -71 -15 -7 -34 -17 -42 -22 -104 -61 -140 -84 -140 -89
0 -4 -100 -6 -222 -6 -212 1 -298 8 -298 25 0 4 19 15 43 25 23 11 63 34 88
52 59 42 167 95 182 90 7 -2 -4 -11 -23 -19 -114 -49 -176 -88 -139 -88 21 0
144 32 149 39 3 4 73 28 155 55 83 26 171 57 198 67 41 17 94 31 162 43 11 2
36 10 55 19 38 17 95 18 95 2z m55 -42 c0 -2 -6 -16 -14 -31 -14 -28 -108
-304 -126 -373 -7 -26 -16 -39 -28 -39 -10 0 -27 -19 -42 -47 -30 -57 -180
-210 -268 -273 -35 -25 -82 -60 -105 -77 -23 -18 -51 -33 -61 -33 -18 0 -17 3
8 29 15 16 38 48 50 72 24 47 105 181 114 189 3 3 2 -3 -2 -14 -6 -17 -5 -18
16 -4 19 13 103 129 274 383 26 39 50 72 54 75 13 10 100 139 100 149 0 6 7 8
15 5 8 -4 15 -8 15 -11z m747 -85 c-36 -106 -50 -199 -43 -290 l7 -89 -33 -33
c-18 -18 -55 -41 -82 -51 -73 -28 -79 -16 -74 150 4 120 7 135 35 197 17 37
43 82 57 101 14 19 26 39 26 45 0 15 22 16 37 1 7 -7 20 -6 44 4 19 8 35 13
37 12 2 -2 -3 -23 -11 -47z m-7 -442 c0 -7 23 -35 51 -61 37 -34 56 -46 71
-42 20 6 21 4 14 -85 -3 -50 -6 -108 -6 -130 0 -31 -3 -38 -20 -38 -24 0 -25
-6 -5 -26 17 -18 17 -10 2 -294 l-12 -215 -32 2 c-44 4 -51 -14 -11 -25 l33
-8 0 -255 0 -254 -40 -61 c-22 -34 -45 -70 -51 -80 -10 -16 -12 -11 -19 36 -4
30 -13 70 -21 89 -8 18 -14 42 -14 52 0 27 -29 24 -39 -4 -5 -13 -16 -29 -25
-36 -9 -7 -16 -24 -16 -37 0 -13 -4 -24 -10 -24 -5 0 -10 5 -10 11 0 6 -31 41
-69 78 -51 48 -67 71 -61 81 4 8 16 44 25 80 9 36 23 80 31 98 14 29 19 32 59
32 33 0 45 4 45 15 0 9 -10 16 -27 16 -16 1 -37 2 -48 3 -12 1 -19 7 -17 16
13 53 51 252 56 289 9 61 22 81 54 81 15 0 33 4 41 9 21 13 -24 34 -56 26 -23
-5 -25 -3 -20 17 10 36 36 196 47 278 14 110 22 144 35 155 7 5 16 21 20 35 7
22 6 23 -9 11 -9 -8 -18 -12 -20 -10 -2 2 -1 36 3 74 5 54 12 76 31 97 25 26
40 28 40 4z m254 -1104 c61 -54 197 -170 301 -257 105 -86 191 -161 193 -165
2 -4 -6 -43 -18 -86 -24 -92 -27 -252 -6 -332 7 -29 9 -52 4 -52 -4 0 -25 12
-46 28 -21 15 -67 40 -103 57 -35 16 -66 31 -68 32 -7 5 29 52 76 100 l46 48
-61 3 c-58 3 -83 -4 -164 -46 -19 -9 -4 24 47 103 30 46 55 87 55 90 0 24
-108 -19 -179 -73 l-34 -25 6 24 c58 227 83 369 66 369 -25 0 -134 -147 -180
-242 -26 -55 -43 -53 -34 3 4 22 4 62 0 89 -7 47 -8 50 -33 43 -21 -5 -24 -3
-19 12 4 9 10 92 13 184 6 168 8 191 20 191 3 0 56 -44 118 -98z m-515 -318
c74 -63 89 -82 101 -123 6 -21 4 -33 -8 -45 -9 -8 -12 -19 -8 -23 12 -12 46
39 46 69 0 15 4 29 9 32 4 3 11 19 14 36 4 16 12 30 20 30 9 0 17 -29 25 -97
6 -54 10 -107 9 -117 -3 -25 21 -33 30 -9 4 10 23 43 44 73 20 30 48 74 63 98
14 23 31 42 36 42 12 0 3 -141 -13 -194 -9 -33 -9 -40 7 -51 16 -12 15 -17
-19 -64 -20 -28 -41 -51 -45 -51 -4 0 -6 45 -3 100 4 59 2 100 -3 100 -14 0
-83 -121 -90 -159 -9 -42 -21 -36 -46 24 -11 28 -24 58 -29 67 -5 10 -9 25 -9
33 0 8 -5 15 -10 15 -11 0 -29 -38 -39 -84 -10 -45 -27 -42 -40 9 -6 25 -16
45 -22 45 -5 0 -7 5 -3 12 4 7 3 8 -4 4 -14 -9 -33 28 -65 129 -35 109 -43
155 -27 155 7 0 43 -25 79 -56z m574 -56 c-28 -122 -61 -226 -74 -233 -12 -8
-12 -45 0 -45 5 0 29 15 53 33 51 38 125 87 133 87 12 0 3 -23 -25 -62 -37
-50 -57 -115 -40 -132 8 -8 13 -8 18 1 8 13 161 77 169 70 2 -3 -14 -29 -36
-58 -23 -30 -41 -61 -41 -70 0 -10 14 -22 33 -28 57 -21 197 -95 222 -119 34
-31 32 -46 -4 -27 -17 8 -47 18 -68 21 -21 3 -56 10 -78 15 -58 13 -515 48
-549 42 l-28 -6 23 27 c30 35 119 86 150 86 13 0 31 5 39 10 23 15 -5 30 -57
30 -46 0 -53 11 -29 45 23 34 96 178 92 183 -3 2 -10 -7 -17 -19 -7 -13 -19
-30 -27 -39 -14 -13 -15 -12 -8 15 4 17 14 37 21 45 8 9 22 34 31 55 20 50
107 184 115 179 4 -2 -5 -50 -18 -106z m-736 -70 c40 -40 94 -91 119 -113 45
-40 93 -119 80 -133 -4 -4 -45 31 -90 78 -117 119 -146 145 -146 130 0 -7 14
-35 31 -62 30 -50 32 -72 5 -48 -23 18 -61 91 -84 159 -19 55 -19 61 -4 61 9
0 49 -33 89 -72z m-140 -90 c21 -12 59 -39 84 -60 26 -21 53 -38 61 -38 16 0
45 -46 35 -56 -7 -8 -54 23 -121 80 -26 21 -49 36 -53 33 -3 -4 4 -33 16 -65
11 -33 21 -62 21 -65 0 -4 -21 3 -47 14 -72 31 -187 41 -264 23 -59 -13 -137
-41 -149 -54 -9 -9 -74 -30 -79 -25 -8 9 39 37 129 80 81 38 89 40 185 40 63
0 112 -5 133 -14 18 -7 35 -11 39 -7 7 7 -16 85 -29 101 -8 9 -11 35 -4 35 3
0 22 -10 43 -22z"/>
<path d="M12164 12167 c23 -32 46 -86 46 -108 0 -10 16 -59 36 -109 33 -83 38
-90 64 -90 38 0 47 15 53 90 4 36 10 90 15 120 11 62 2 94 -28 110 -34 18 -48
-2 -45 -65 2 -30 0 -57 -5 -60 -4 -3 -21 10 -36 28 -16 19 -37 36 -47 40 -19
7 -33 34 -23 44 3 3 17 1 30 -5 19 -8 26 -8 29 1 3 9 8 9 20 -2 12 -9 17 -10
17 -2 0 15 -12 19 -84 25 l-58 6 16 -23z"/>
<path d="M11333 5455 c-13 -5 -23 -13 -23 -17 0 -5 -5 -8 -11 -8 -27 0 -490
-331 -685 -489 -44 -36 -98 -79 -119 -96 -62 -48 -100 -85 -88 -85 6 0 16 7
23 15 7 8 16 15 21 15 4 0 6 -54 4 -121 -2 -100 -6 -126 -22 -148 -45 -61 -42
-65 14 -18 162 134 480 378 723 555 85 63 157 118 158 123 2 5 -4 9 -13 9 -9
0 -13 5 -9 11 4 8 9 8 17 0 15 -15 40 -14 31 1 -4 7 -3 8 5 4 10 -7 41 15 41
28 0 12 -28 6 -34 -6 -2 -7 -4 -4 -4 7 2 38 -4 140 -7 130 -2 -5 -6 -22 -9
-37 -8 -33 -22 -36 -31 -7 -5 14 -2 25 6 30 11 7 9 9 -6 9 -15 0 -12 4 13 16
17 9 32 21 32 27 0 7 -4 7 -12 -1 -7 -7 -18 -12 -25 -12 -22 0 -14 20 11 30
28 10 37 22 28 36 -5 6 -15 6 -29 -1z"/>
<path d="M4633 16091 c-92 -42 -109 -146 -43 -255 71 -116 241 -288 325 -327
86 -40 180 -14 217 61 48 96 -9 210 -197 395 -130 128 -218 164 -302 126z"/>
<path d="M16880 14354 c-25 -7 -117 -27 -204 -44 -88 -17 -161 -32 -164 -34
-4 -4 117 -212 141 -243 7 -9 20 1 50 40 23 28 85 107 139 175 54 67 94 122
90 121 -4 0 -27 -7 -52 -15z"/>
<path d="M3068 13595 c84 -86 155 -155 156 -154 8 9 126 250 126 257 0 5 -80
16 -177 26 -98 9 -196 20 -218 23 l-41 5 154 -157z"/>
<path d="M17635 12407 c-82 -22 -151 -41 -153 -42 -2 -2 13 -65 33 -142 55
-206 90 -253 190 -253 84 0 150 51 162 125 5 29 -58 310 -76 340 -4 7 -59 -3
-156 -28z"/>
<path d="M2540 12043 c-102 -13 -200 -26 -219 -29 l-34 -5 59 -31 c33 -17 118
-71 191 -119 l131 -88 32 132 c17 73 33 137 35 144 2 7 1 14 -3 16 -4 2 -90
-7 -192 -20z"/>
<path d="M2230 11322 c-69 -34 -78 -62 -108 -339 l-8 -72 35 -5 c111 -17 273
-28 280 -20 10 11 31 200 31 279 0 81 -23 124 -80 153 -53 26 -103 28 -150 4z"/>
<path d="M2315 10154 c-104 -41 -195 -74 -202 -74 -32 0 -8 -18 38 -28 39 -9
253 -81 357 -119 13 -6 15 90 3 223 l-6 72 -190 -74z"/>
<path d="M2245 9413 c-27 -7 -67 -40 -82 -66 -17 -31 -16 -102 4 -254 16 -122
19 -133 38 -133 37 1 286 38 292 44 12 11 -34 292 -53 332 -34 70 -110 99
-199 77z"/>
<path d="M17636 8757 c-45 -212 -31 -284 61 -323 45 -19 119 -18 154 3 42 25
65 80 94 223 14 69 27 134 30 146 4 20 -4 23 -133 48 -75 15 -146 30 -158 32
-19 5 -22 -5 -48 -129z"/>
<path d="M17449 7884 c-6 -16 -31 -89 -56 -163 -38 -113 -44 -143 -41 -189 4
-48 10 -60 41 -88 64 -59 138 -57 197 5 28 29 47 71 93 200 31 90 56 165 55
166 -2 1 -59 21 -128 45 -69 23 -131 45 -137 47 -7 3 -18 -8 -24 -23z"/>
<path d="M3014 7546 c-126 -29 -261 -121 -307 -211 -12 -25 -22 -66 -25 -110
-8 -131 55 -237 174 -296 60 -30 69 -31 137 -26 188 16 357 127 397 262 20 66
14 147 -15 214 -63 139 -201 203 -361 167z"/>
<path d="M16755 7016 c-126 -40 -209 -141 -222 -271 -17 -159 127 -317 338
-371 224 -57 421 130 375 357 -21 102 -91 177 -232 248 -96 48 -184 61 -259
37z"/>
<path d="M15693 4917 c-116 -119 -150 -163 -163 -208 -20 -70 36 -162 107
-175 64 -12 109 16 245 153 l128 128 -109 102 -108 102 -100 -102z"/>
<path d="M14782 4271 l-113 -89 53 -34 c29 -19 76 -47 103 -63 28 -16 87 -53
133 -82 45 -29 85 -53 87 -53 3 0 -4 21 -15 48 -10 26 -42 118 -70 205 -28 86
-54 157 -58 157 -4 0 -58 -40 -120 -89z"/>
<path d="M6347 3413 c-15 -109 -30 -209 -34 -223 -5 -19 13 -7 78 55 46 44
121 112 166 152 l82 72 -32 19 c-43 26 -223 122 -229 122 -2 0 -16 -89 -31
-197z"/>
<path d="M7165 3025 c-40 -21 -63 -49 -75 -96 -9 -33 -8 -47 8 -83 11 -23 33
-53 50 -65 17 -12 101 -48 187 -80 155 -59 156 -59 166 -38 5 12 29 75 53 139
l44 117 -82 32 c-241 93 -292 104 -351 74z"/>
</g>
</svg>
